<svg width="242" height="166" viewBox="0 0 242 166" fill="none" xmlns="http://www.w3.org/2000/svg">
<path d="M178.186 100.124C178.194 108.521 176.381 116.826 172.865 124.508C169.349 132.19 164.206 139.079 157.767 144.734C155.975 146.308 154.092 147.783 152.126 149.15C149.603 150.905 146.947 152.474 144.181 153.846H144.152C143.562 154.144 142.963 154.428 142.359 154.703C142.083 154.833 141.813 154.955 141.532 155.076C139.783 155.849 137.988 156.543 136.148 157.158C134.698 157.624 133.21 158.09 131.707 158.472C123.036 160.695 113.973 161.106 105.125 159.678C104.076 159.511 103.042 159.32 102.012 159.101L101.142 158.91C98.5161 158.318 95.9329 157.562 93.4092 156.646C91.9432 156.115 90.5062 155.532 89.0981 154.899C88.552 154.652 88.0059 154.4 87.4694 154.139C87.1021 153.962 86.7396 153.781 86.3771 153.599C76.5432 148.621 68.2585 141.213 62.3715 132.135C56.4844 123.056 53.2065 112.632 52.8734 101.93C52.5403 91.2289 55.164 80.6343 60.4758 71.2316C65.7875 61.8289 73.5966 53.9558 83.1032 48.4186C92.6098 42.8814 103.472 39.8791 114.579 39.719C125.685 39.559 136.636 42.2469 146.31 47.5077C155.984 52.7684 164.034 60.4129 169.635 69.6583C175.236 78.9038 178.187 89.418 178.186 100.124Z" fill="url(#paint0_linear)"/>
<path d="M131.938 104.494C135.931 108.454 147.559 123.864 147.559 123.864L140.416 133.959L133.993 113.904L131.938 104.494Z" fill="url(#paint1_linear)"/>
<path d="M144.152 153.878C143.562 154.177 142.963 154.461 142.359 154.736C142.083 154.866 141.813 154.987 141.532 155.108C139.783 155.882 137.988 156.576 136.148 157.191C134.698 157.656 133.21 158.122 131.707 158.504C123.036 160.727 113.973 161.139 105.125 159.711C104.076 159.543 103.042 159.352 102.012 159.133C98.2423 161.639 94.7625 163.759 92.4571 164.723L92.6456 163.172L93.4286 156.683L95.241 141.585L102.423 134.89L86.2756 136.097C86.2756 136.097 87.972 113.41 94.5934 108.742C101.215 104.075 108.16 99.8912 108.16 99.8912C108.988 100.418 109.901 100.81 110.861 101.051C113.158 101.663 115.545 101.898 117.923 101.745C120.755 101.62 123.587 99.0806 123.722 98.9502C123.722 98.9502 128.169 99.8027 131.939 104.512C133.819 106.937 135.169 109.704 135.906 112.646C136.834 116.089 138.483 124.129 140.358 133.842C141.585 140.094 142.876 147.026 144.152 153.878Z" fill="url(#paint2_linear)"/>
<path d="M147.559 123.882L154.451 131.667L178.689 108.477L179.607 103.73L184.44 99.6816L182.29 105.854V113.895C182.29 113.895 163.595 143.103 158.443 144.608C152.416 146.374 140.426 133.949 140.426 133.949L147.559 123.882Z" fill="url(#paint3_linear)"/>
<path d="M122.398 134.527L128.019 147.571L135.283 144.561L129.957 131.797L122.398 134.527Z" fill="#7E57C2"/>
<path d="M130.228 142.954C129.324 143.672 127.976 143.504 126.303 143.588C124.057 143.645 121.902 144.459 120.214 145.889C117.966 147.711 111.683 152.476 105.4 156.827C104.26 157.614 103.119 158.392 102.017 159.156C98.2473 161.663 94.7674 163.782 92.4621 164.747C91.856 165.037 91.2015 165.221 90.5288 165.292C87.3003 165.371 86.6092 158.849 86.4111 153.645C86.3482 151.917 86.3337 150.338 86.2999 149.197C86.1646 144.631 86.2999 136.153 86.2999 136.153L102.447 134.942L100.736 145.721L100.437 147.627V147.641L105.27 145.917L105.42 145.866L122.577 139.721L123.761 137.751L124.515 139.614H124.588L131.934 138.682C131.934 138.682 132.059 141.505 130.228 142.954Z" fill="url(#paint4_linear)"/>
<path d="M126.521 74.9684C126.1 73.8597 125.738 73.105 125.631 72.8814V72.8255C125.631 72.8255 125.259 73.7107 122.456 73.4964C119.653 73.2821 118.725 71.9404 118.725 71.9404C118.725 71.9404 119.605 74.8473 116.265 76.0911C113.051 77.293 111.785 76.5151 111.698 76.4592C111.867 76.6362 114.38 79.2263 112.713 81.2807C110.987 83.4096 107.106 82.9903 107.106 82.9903V83.0183C107.595 84.0844 108.142 85.1247 108.745 86.1348C109.064 86.6659 109.378 87.155 109.711 87.6116V87.6442C110.567 88.9863 111.723 90.1274 113.094 90.9843C112.492 94.3934 110.761 97.5229 108.16 99.9053C109.035 100.345 109.937 100.733 110.862 101.065C112.664 101.722 115.086 102.374 117.246 102.193C119.749 101.935 122.062 100.785 123.732 98.9689L122.625 94.8741L121.63 91.1846C130.629 88.9718 128.154 79.3474 126.521 74.9684ZM121.127 91.3197L121.286 91.2824L121.543 91.2126C121.17 91.368 120.776 91.4715 120.373 91.52C120.581 91.4688 120.793 91.4129 121.016 91.3476L121.127 91.3197Z" fill="url(#paint5_linear)"/>
<path d="M131.938 72.7044C128.227 75.9933 126.622 75.0662 126.521 74.9777V74.9684C126.1 73.8597 125.738 73.105 125.636 72.8814L125.612 72.8255C125.612 72.8255 125.235 73.7106 122.432 73.4963C119.629 73.282 118.705 71.9404 118.705 71.9404C118.705 71.9404 119.585 74.8473 116.245 76.0911C113.027 77.293 111.76 76.515 111.678 76.4591C111.847 76.6315 114.361 79.2216 112.693 81.276C110.968 83.4049 107.087 82.9903 107.087 82.9903V83.0136C107.575 84.0813 108.122 85.1232 108.725 86.1348C109.047 86.6627 109.37 87.155 109.692 87.6115V87.6441C109.692 87.6441 108.368 90.1551 106.004 90.1038C103.641 90.0526 103.588 87.7746 103.588 87.7746C103.588 87.7746 101.915 90.6815 96.7488 87.8817C91.5822 85.082 95.0282 81.0244 95.0282 81.0244C95.0282 81.0244 91.3647 78.3225 91.3647 74.2743C91.3647 70.2261 97.0678 67.1468 97.0678 67.1468C97.0678 67.1468 95.0282 62.4464 98.4694 59.8563C101.911 57.2662 107.082 59.0224 107.082 59.0224C107.082 59.0224 106.98 53.0083 112.248 53.1062C117.517 53.204 118.71 56.3112 118.71 56.3112C118.71 56.3112 123.447 52.7801 128.135 56.1062C132.823 59.4324 130.894 65.2322 130.894 65.2322C130.894 65.2322 135.81 69.2804 131.938 72.7044Z" fill="url(#paint6_linear)"/>
<path opacity="0.15" d="M122.664 94.8601C120.417 94.1753 116.42 91.5619 116.42 91.5619C117.997 91.7225 119.591 91.6408 121.142 91.3196L121.301 91.2824L121.61 91.1938H121.654L122.664 94.8601Z" fill="black"/>
<path opacity="0.15" d="M104.603 120.957L102.423 134.932L100.712 145.712L96.7295 148.903L105.395 145.87C105.395 145.87 103.148 139.684 104.603 120.957Z" fill="black"/>
<path opacity="0.15" d="M102.002 159.133C103.032 159.352 104.066 159.543 105.115 159.711C105.168 158.756 105.265 157.791 105.4 156.827L102.002 159.133Z" fill="black"/>
<g filter="url(#filter0_d)">
<path d="M81.0561 10.1343H55.2136C51.6475 10.1343 48.7566 12.9207 48.7566 16.358V41.2669C48.7566 44.7042 51.6475 47.4906 55.2136 47.4906H81.0561C84.6222 47.4906 87.5131 44.7042 87.5131 41.2669V16.358C87.5131 12.9207 84.6222 10.1343 81.0561 10.1343Z" fill="#56CCF2"/>
</g>
<path d="M77.8319 27.5068H73.9033L76.9557 24.5443L75.6273 23.2459L71.2371 27.5068H69.3529V25.6781L73.7431 21.4173L72.4053 20.128L69.3529 23.0905V19.2777H67.4687V23.0905L64.4163 20.128L63.0785 21.4173L67.4687 25.6781V27.5068H65.5845L61.1943 23.2459L59.8659 24.5443L62.9183 27.5068H58.9897V29.3354H62.9183L59.8659 32.2979L61.1943 33.5963L65.5845 29.3354H67.4687V31.1641L63.0785 35.4249L64.4163 36.7142L67.4687 33.7517V37.5645H69.3529V33.7517L72.4053 36.7142L73.7431 35.4249L69.3529 31.1641V29.3354H71.2371L75.6273 33.5963L76.9557 32.2979L73.9033 29.3354H77.8319V27.5068Z" fill="white"/>
<g filter="url(#filter1_d)">
<path d="M214.705 98.3112H188.862C185.296 98.3112 182.405 101.098 182.405 104.535V129.444C182.405 132.881 185.296 135.668 188.862 135.668H214.705C218.271 135.668 221.162 132.881 221.162 129.444V104.535C221.162 101.098 218.271 98.3112 214.705 98.3112Z" fill="#F2C94C"/>
</g>
<path d="M210.668 113.855C210.668 109.283 206.9 105.626 202.189 105.626C197.479 105.626 193.71 109.283 193.71 113.855C193.71 116.689 195.218 119.25 197.479 120.712V122.998C197.479 124.187 198.233 125.193 199.363 125.558V125.741C199.363 127.296 200.588 128.484 202.189 128.484C203.791 128.484 205.016 127.296 205.016 125.741V125.558C206.146 125.193 206.9 124.187 206.9 122.998V120.712C209.161 119.25 210.668 116.689 210.668 113.855ZM195.595 113.855C195.595 110.289 198.515 107.455 202.189 107.455C205.864 107.455 208.784 110.289 208.784 113.855C208.784 117.055 206.335 119.707 203.131 120.164V117.878L204.733 116.324C205.11 115.958 205.11 115.409 204.733 115.044C204.356 114.678 203.791 114.678 203.414 115.044L202.189 116.232L200.965 115.044C200.588 114.678 200.023 114.678 199.646 115.044C199.269 115.409 199.269 115.958 199.646 116.324L201.247 117.878V120.164C198.044 119.707 195.595 117.055 195.595 113.855ZM202.189 126.656C201.624 126.656 201.247 126.29 201.247 125.741H203.131C203.131 126.29 202.755 126.656 202.189 126.656ZM205.016 122.998C205.016 123.547 204.639 123.913 204.074 123.913H200.305C199.74 123.913 199.363 123.547 199.363 122.998V121.627C200.211 121.901 201.153 122.084 202.189 122.084C203.226 122.084 204.168 121.901 205.016 121.627V122.998Z" fill="white"/>
<g filter="url(#filter2_d)">
<path d="M42.2995 98.3112H16.457C12.8909 98.3112 10 101.098 10 104.535V129.444C10 132.881 12.8909 135.668 16.457 135.668H42.2995C45.8656 135.668 48.7565 132.881 48.7565 129.444V104.535C48.7565 101.098 45.8656 98.3112 42.2995 98.3112Z" fill="#F58A8A"/>
</g>
<path d="M35.4368 113.855H34.4947V112.026C34.4947 109.503 32.3844 107.454 29.7842 107.454C27.1839 107.454 25.0736 109.503 25.0736 112.026V113.855H24.1315C23.0952 113.855 22.2473 114.678 22.2473 115.684V124.827C22.2473 125.833 23.0952 126.656 24.1315 126.656H35.4368C36.4731 126.656 37.321 125.833 37.321 124.827V115.684C37.321 114.678 36.4731 113.855 35.4368 113.855ZM29.7842 122.084C28.7478 122.084 27.8999 121.261 27.8999 120.255C27.8999 119.249 28.7478 118.427 29.7842 118.427C30.8205 118.427 31.6684 119.249 31.6684 120.255C31.6684 121.261 30.8205 122.084 29.7842 122.084ZM32.7047 113.855H26.8636V112.026C26.8636 110.463 28.1732 109.192 29.7842 109.192C31.3952 109.192 32.7047 110.463 32.7047 112.026V113.855Z" fill="white"/>
<g filter="url(#filter3_d)">
<path d="M172.31 10.1343H146.467C142.901 10.1343 140.01 12.9207 140.01 16.358V41.2669C140.01 44.7042 142.901 47.4906 146.467 47.4906H172.31C175.876 47.4906 178.767 44.7042 178.767 41.2669V16.358C178.767 12.9207 175.876 10.1343 172.31 10.1343Z" fill="#6FCF97"/>
</g>
<path d="M164.798 23.7548H149.412V33.0873H164.798V23.7548Z" fill="white"/>
<path d="M168.945 25.6118L165.549 26.9971V29.8842L168.945 31.2695H170.177V25.6118H168.945Z" fill="white"/>
<defs>
<filter id="filter0_d" x="38.7566" y="0.134277" width="68.7565" height="67.3564" filterUnits="userSpaceOnUse" color-interpolation-filters="sRGB">
<feFlood flood-opacity="0" result="BackgroundImageFix"/>
<feColorMatrix in="SourceAlpha" type="matrix" values="0 0 0 0 0 0 0 0 0 0 0 0 0 0 0 0 0 0 127 0"/>
<feOffset dx="5" dy="5"/>
<feGaussianBlur stdDeviation="7.5"/>
<feColorMatrix type="matrix" values="0 0 0 0 0 0 0 0 0 0 0 0 0 0 0 0 0 0 0.15 0"/>
<feBlend mode="normal" in2="BackgroundImageFix" result="effect1_dropShadow"/>
<feBlend mode="normal" in="SourceGraphic" in2="effect1_dropShadow" result="shape"/>
</filter>
<filter id="filter1_d" x="172.405" y="88.3112" width="68.7565" height="67.3564" filterUnits="userSpaceOnUse" color-interpolation-filters="sRGB">
<feFlood flood-opacity="0" result="BackgroundImageFix"/>
<feColorMatrix in="SourceAlpha" type="matrix" values="0 0 0 0 0 0 0 0 0 0 0 0 0 0 0 0 0 0 127 0"/>
<feOffset dx="5" dy="5"/>
<feGaussianBlur stdDeviation="7.5"/>
<feColorMatrix type="matrix" values="0 0 0 0 0 0 0 0 0 0 0 0 0 0 0 0 0 0 0.15 0"/>
<feBlend mode="normal" in2="BackgroundImageFix" result="effect1_dropShadow"/>
<feBlend mode="normal" in="SourceGraphic" in2="effect1_dropShadow" result="shape"/>
</filter>
<filter id="filter2_d" x="0" y="88.3112" width="68.7565" height="67.3563" filterUnits="userSpaceOnUse" color-interpolation-filters="sRGB">
<feFlood flood-opacity="0" result="BackgroundImageFix"/>
<feColorMatrix in="SourceAlpha" type="matrix" values="0 0 0 0 0 0 0 0 0 0 0 0 0 0 0 0 0 0 127 0"/>
<feOffset dx="5" dy="5"/>
<feGaussianBlur stdDeviation="7.5"/>
<feColorMatrix type="matrix" values="0 0 0 0 0 0 0 0 0 0 0 0 0 0 0 0 0 0 0.15 0"/>
<feBlend mode="normal" in2="BackgroundImageFix" result="effect1_dropShadow"/>
<feBlend mode="normal" in="SourceGraphic" in2="effect1_dropShadow" result="shape"/>
</filter>
<filter id="filter3_d" x="130.01" y="0.134277" width="68.7564" height="67.3564" filterUnits="userSpaceOnUse" color-interpolation-filters="sRGB">
<feFlood flood-opacity="0" result="BackgroundImageFix"/>
<feColorMatrix in="SourceAlpha" type="matrix" values="0 0 0 0 0 0 0 0 0 0 0 0 0 0 0 0 0 0 127 0"/>
<feOffset dx="5" dy="5"/>
<feGaussianBlur stdDeviation="7.5"/>
<feColorMatrix type="matrix" values="0 0 0 0 0 0 0 0 0 0 0 0 0 0 0 0 0 0 0.15 0"/>
<feBlend mode="normal" in2="BackgroundImageFix" result="effect1_dropShadow"/>
<feBlend mode="normal" in="SourceGraphic" in2="effect1_dropShadow" result="shape"/>
</filter>
<linearGradient id="paint0_linear" x1="115.773" y1="46.2717" x2="113.782" y2="165.33" gradientUnits="userSpaceOnUse">
<stop stop-color="white" stop-opacity="0"/>
<stop offset="1" stop-color="#64B5F6" stop-opacity="0.6"/>
</linearGradient>
<linearGradient id="paint1_linear" x1="127.207" y1="100.492" x2="143.543" y2="130.274" gradientUnits="userSpaceOnUse">
<stop stop-color="#E57373"/>
<stop offset="1" stop-color="#AD1457"/>
</linearGradient>
<linearGradient id="paint2_linear" x1="26512.5" y1="36361.6" x2="24812" y2="45068.9" gradientUnits="userSpaceOnUse">
<stop stop-color="#E57373"/>
<stop offset="1" stop-color="#AD1457"/>
</linearGradient>
<linearGradient id="paint3_linear" x1="190.999" y1="111.258" x2="145.053" y2="138.873" gradientUnits="userSpaceOnUse">
<stop stop-color="#FFF8E1"/>
<stop offset="1" stop-color="#FFCC80"/>
</linearGradient>
<linearGradient id="paint4_linear" x1="20399.4" y1="20383.7" x2="17931.3" y2="18657.1" gradientUnits="userSpaceOnUse">
<stop stop-color="#FFF8E1"/>
<stop offset="1" stop-color="#FFCC80"/>
</linearGradient>
<linearGradient id="paint5_linear" x1="131.252" y1="79.7124" x2="106.004" y2="90.4997" gradientUnits="userSpaceOnUse">
<stop stop-color="#FFF8E1"/>
<stop offset="1" stop-color="#FFCC80"/>
</linearGradient>
<linearGradient id="paint6_linear" x1="125.394" y1="52.9291" x2="96.9212" y2="92.8436" gradientUnits="userSpaceOnUse">
<stop stop-color="#FFB74D"/>
<stop offset="1" stop-color="#F4511E"/>
</linearGradient>
</defs>
</svg>
